{"title":"A Place To Call Home - The Story So Far","uid":15854646,"size":379070121,"categoryP":"video","categoryS":"tv_shows","magnet":"?xt=urn:btih:976966db82431f2bfff5fc9bbc412f8e2dadc895&amp;dn=A+Place+To+Call+Home+-+The+Story+So+Far&amp;tr=udp%3A%2F%2Ftracker.leechers-paradise.org%3A6969&amp;tr=udp%3A%2F%2Fzer0day.ch%3A1337&amp;tr=udp%3A%2F%2Fopen.demonii.com%3A1337&amp;tr=udp%3A%2F%2Ftracker.coppersurfer.tk%3A6969&amp;tr=udp%3A%2F%2Fexodus.desync.com%3A6969","seeders":10,"leechers":3,"uploader":"Bullrout","files":1,"time":1474228534,"description":"A Place To Call Home - The Story So Far\r\n\r\nIncluding behind the scenes footage and cast interviews, host Abby Earl presents some of the series most memorable moments and gives you a sneak peek at the season.\r\n\r\nComplete name                            : A Place To Call Home - The Story So Far.mp4\r\nFormat                                   : MPEG-4\r\nFormat profile                           : Base Media / Version 2\r\nCodec ID                                 : mp42 (mp42/isom/avc1)\r\nFile size                                : 362 MiB\r\nDuration                                 : 45 min 39 s\r\nOverall bit rate mode                    : Variable\r\nOverall bit rate                         : 1 107 kb/s\r\n\r\nVideo\r\nID                                       : 2\r\nFormat                                   : AVC\r\nFormat/Info                              : Advanced Video Codec\r\nFormat profile                           :   \r\nFormat settings, CABAC                   : Yes\r\nFormat settings, ReFrames                : 3 frames\r\nCodec ID                                 : avc1\r\nCodec ID/Info                            : Advanced Video Coding\r\nDuration                                 : 45 min 39 s\r\nBit rate mode                            : Variable\r\nBit rate                                 : 976 kb/s\r\nMaximum bit rate                         : 1 000 kb/s\r\nWidth                                    : 720 pixels\r\nHeight                                   : 404 pixels\r\nDisplay aspect ratio                     : 16:9\r\nOriginal display aspect ratio            : 16:9\r\nFrame rate mode                          : Constant\r\nFrame rate                               : 25.000 FPS\r\nStandard                                 : PAL\r\nColor space                              : YUV\r\nChroma subsampling                       : 4:2:0\r\nBit depth                                : 8 bits\r\nScan type                                : Progressive\r\nBits/(Pixel*Frame)                       : 0.134\r\nStream size                              : 319 MiB (88%)\r\nWriting library                          : x264 core 112\r\nColor range                              : Limited\r\nColor primaries                          : BT.601 PAL\r\nTransfer characteristics                 : BT.470 System B, BT.470 System G\r\nMatrix coefficients                      : BT.601\r\n\r\nAudio\r\nID                                       : 1\r\nFormat                                   : AAC\r\nFormat/Info                              : Advanced Audio Codec\r\nFormat profile                           : LC\r\nCodec ID                                 : 40\r\nDuration                                 : 45 min 39 s\r\nBit rate mode                            : Variable\r\nBit rate                                 : 128 kb/s\r\nMaximum bit rate                         : 576 kb/s\r\nChannel(s)                               : 2 channels\r\nChannel positions                        : Front: L R\r\nSampling rate                            : 48.0 kHz\r\nFrame rate                               : 46.875 FPS (1024 spf)\r\nCompression mode                         : Lossy\r\nStream size                              : 41.8 MiB (12%)","torrent":{"xt":"urn:btih:976966db82431f2bfff5fc9bbc412f8e2dadc895","amp;dn":"A+Place+To+Call+Home+-+The+Story+So+Far","amp;tr":["udp%3A%2F%2Ftracker.leechers-paradise.org%3A6969","udp%3A%2F%2Fzer0day.ch%3A1337","udp%3A%2F%2Fopen.demonii.com%3A1337","udp%3A%2F%2Ftracker.coppersurfer.tk%3A6969","udp%3A%2F%2Fexodus.desync.com%3A6969"],"infoHash":"976966db82431f2bfff5fc9bbc412f8e2dadc895","infoHashBuffer":{"type":"Buffer","data":[151,105,102,219,130,67,31,43,255,245,252,155,188,65,47,142,45,173,200,149]},"announce":[],"urlList":[]}}